<svg width="16" height="16" viewBox="0 0 16 16" fill="none" xmlns="http://www.w3.org/2000/svg">
<g clip-path="url(#clip0_9_1571)">
<path fill-rule="evenodd" clip-rule="evenodd" d="M11.2633 0.819526C10.2032 0.598955 7.84035 0.521881 6.47164 0.521881C5.32146 0.521881 4.2086 0.709535 3.08705 0.94353C1.75313 1.22125 0.856199 2.60799 0.66422 4.10294C0.501087 5.37247 0.400696 6.63572 0.400696 7.91694C0.400696 8.20677 0.403953 8.47473 0.410025 8.72491C0.403931 8.91503 0.400696 9.1171 0.400696 9.33361C0.400696 10.7956 0.54888 11.5815 0.709497 12.431L0.721551 12.4948C0.980416 13.8653 2.14315 14.9348 3.57237 15.137L3.75907 15.1636C4.88452 15.3234 5.96715 15.4772 7.57724 15.4772C9.18738 15.4772 10.27 15.3234 11.3955 15.1636L11.5823 15.137C12.7555 14.971 13.7673 14.2023 14.2295 13.1394C14.3763 12.8022 14.0894 12.4657 13.7216 12.4639C13.5809 12.4633 13.4404 12.4616 13.2997 12.4599C13.1193 12.4577 12.939 12.4556 12.7591 12.4556C11.0749 12.4556 9.70957 11.0902 9.70957 9.40599C9.70957 7.72177 11.0749 6.35643 12.7591 6.35643C12.9376 6.35643 13.1163 6.35489 13.2951 6.35335C13.4189 6.35228 13.5428 6.35122 13.6665 6.35067C14.0409 6.34899 14.3236 5.99751 14.1559 5.66276C13.8743 5.1006 13.4291 4.62778 12.8825 4.29981C12.0043 3.83641 10.8696 3.73924 9.26655 3.73924C7.97838 3.73924 6.73788 3.83842 5.77984 3.91502C5.52051 3.93575 5.28187 3.95483 5.06859 3.96985C4.67507 3.99754 4.33361 3.70098 4.30592 3.30746C4.27822 2.91395 4.57478 2.57249 4.9683 2.54479C5.16297 2.53109 5.38765 2.51309 5.63661 2.49315C6.59531 2.41634 7.91413 2.31067 9.26655 2.31067C10.2086 2.31067 11.111 2.3375 11.9479 2.49714C12.3517 2.57414 12.7392 2.24983 12.5587 1.88067C12.3037 1.35947 11.8549 0.942626 11.2633 0.819526ZM12.7591 11.027H14.3324C14.9636 11.027 15.4752 10.5153 15.4752 9.88414V8.92785C15.4752 8.29667 14.9636 7.785 14.3324 7.785H12.7591C11.8639 7.785 11.1381 8.51075 11.1381 9.40599C11.1381 10.3013 11.8639 11.027 12.7591 11.027Z" fill="#1E1E1E"/>
</g>
<defs>
<clipPath id="clip0_9_1571">
<rect width="16" height="16" fill="white"/>
</clipPath>
</defs>
</svg>
