<svg width="20" height="20" viewBox="0 0 20 20" fill="none" xmlns="http://www.w3.org/2000/svg">
<g clip-path="url(#clip0_1427_182)">
<path fill-rule="evenodd" clip-rule="evenodd" d="M2.88715 2.88681C4.57572 1.19967 7.01143 0.356812 10 0.356812C12.9886 0.356812 15.4243 1.19967 17.1129 2.88681C18.8 4.57538 19.6429 7.0111 19.6429 9.99967C19.6429 12.9882 18.8 15.424 17.1129 17.1125C15.4243 18.7997 12.9886 19.6425 10 19.6425C7.01143 19.6425 4.57572 18.7997 2.88715 17.1125C1.2 15.424 0.357147 12.9882 0.357147 9.99967C0.357147 7.0111 1.2 4.57538 2.88715 2.88681ZM9.39715 6.0011C9.34301 5.83032 9.23875 5.67977 9.09791 5.56903C8.95708 5.45829 8.78619 5.39248 8.60746 5.38015C8.42873 5.36783 8.25042 5.40955 8.09572 5.49991C7.94101 5.59027 7.81707 5.72508 7.74 5.88681L6.33715 8.84395H5.06572C4.82892 8.84395 4.60182 8.93802 4.43437 9.10547C4.26693 9.27291 4.17286 9.50001 4.17286 9.73681C4.17286 9.97361 4.26693 10.2007 4.43437 10.3682C4.60182 10.5356 4.82892 10.6297 5.06572 10.6297H6.90143C7.07045 10.6298 7.23602 10.5819 7.3789 10.4916C7.52178 10.4013 7.6361 10.2724 7.70858 10.1197L8.38 8.70538L10.0543 13.9982C10.1068 14.1651 10.2073 14.3128 10.3431 14.4231C10.4788 14.5334 10.644 14.6013 10.8181 14.6185C10.9922 14.6357 11.1675 14.6014 11.3223 14.5198C11.477 14.4383 11.6044 14.313 11.6886 14.1597L13.6271 10.6282H14.9343C15.1711 10.6282 15.3982 10.5342 15.5656 10.3667C15.7331 10.1993 15.8271 9.97218 15.8271 9.73538C15.8271 9.49858 15.7331 9.27148 15.5656 9.10404C15.3982 8.93659 15.1711 8.84253 14.9343 8.84253H13.0986C12.9386 8.84246 12.7815 8.88538 12.6438 8.96681C12.5061 9.04823 12.3928 9.16517 12.3157 9.30538L11.1271 11.4682L9.39857 5.99967L9.39715 6.0011Z" fill="white" fill-opacity="0.5"/>
</g>
<defs>
<clipPath id="clip0_1427_182">
<rect width="20" height="20" fill="white"/>
</clipPath>
</defs>
</svg>
